<svg xmlns="http://www.w3.org/2000/svg" viewBox="0 0 32 32">
  <rect x="1" y="1" width="30" height="30" rx="7" fill="#6366f1"/>
  <path d="M7.511 22.154 5.77 26.269C7.155 28.129 8.976 29 11.588 29C17.642 29 23.578 24.093 23.578 19.027C23.578 17.405 22.985 16.574 20.017 14.279C17.128 12.023 16.653 11.35 16.653 9.648C16.653 7.037 18.592 4.86 20.927 4.86C22.589 4.86 23.183 5.572 23.618 8.105L26.23 6.245C25.992 4.108 24.805 3 22.708 3C18.632 3 14.002 7.472 14.002 11.429C14.002 13.25 14.793 14.476 17.128 16.297C19.819 18.434 20.531 19.502 20.531 21.323C20.531 24.449 17.563 27.14 14.12 27.14C12.419 27.14 10.677 26.388 9.609 25.201C8.778 24.291 8.461 23.46 8.145 21.718Z" fill="white"/>
</svg>