<svg width="240.9" height="153.1" xmlns="http://www.w3.org/2000/svg">
 <metadata>
 </metadata>

 <style type="text/css">.st0{fill:#EB0029;}</style>
 <g>
  <title>background</title>
  <rect fill="none" id="canvas_background" height="402" width="582" y="-1" x="-1"/>
 </g>
 <g>
  <title>Layer 1</title>
  <g stroke="null" id="svg_9">
   <path stroke="null" id="svg_10" d="m129.049523,91.779038l40.951459,0.286085c2.213592,0 4.427185,-0.858256 5.81068,-2.574767l14.38835,-14.87643l-61.15049,0c-4.427185,0 -8.300971,3.719108 -8.300971,8.582556c0,4.863448 3.597088,8.582556 8.300971,8.582556" class="st0"/>
   <path stroke="null" id="svg_11" d="m120.748551,134.691818l0,0c0,4.577363 5.257282,6.866045 8.300971,3.433022l24.072817,-24.889413c3.04369,-3.146937 0.830097,-8.582556 -3.320389,-8.868641l-24.072817,0c-2.76699,0 -4.980583,2.288682 -4.980583,4.863448l0,25.461583z" class="st0"/>
   <path stroke="null" id="svg_12" d="m154.782534,61.454007c8.024272,0 12.174758,-10.012982 6.364078,-16.020771l-35.694177,-36.618906c-3.597088,-3.719108 -9.131069,-3.719108 -12.728156,0l-35.140779,36.332821c-5.81068,6.007789 -1.660194,16.306856 6.364078,16.306856l70.834956,0z" class="st0"/>
   <path stroke="null" id="svg_13" d="m47.700003,74.900011l0.553398,0.57217l39.567964,40.910184c6.364078,6.57996 17.155341,2.002596 17.155341,-7.438215l0,-23.458987c0,-5.721704 -4.427185,-10.585152 -9.961166,-10.585152l-47.315537,0z" class="st0"/>
  </g>
 </g>
</svg>